<svg xmlns="http://www.w3.org/2000/svg" viewBox="0 0 43.7 35.05"><defs><style>.cls-1{fill:#b35360;}</style></defs><g id="Livello_2" data-name="Livello 2"><g id="Livello_1-2" data-name="Livello 1"><path class="cls-1" d="M0,2H43.7"/><path class="cls-1" d="M0,2A78.92,78.92,0,0,1,10.92.43Q16.4,0,21.85,0c3.64,0,7.28.13,10.92.43A78.84,78.84,0,0,1,43.7,2,78.84,78.84,0,0,1,32.77,3.57c-3.64.3-7.28.43-10.92.43s-7.28-.14-10.93-.43A78.92,78.92,0,0,1,0,2Z"/><path class="cls-1" d="M0,33.05H43.7"/><path class="cls-1" d="M0,33.05a80.43,80.43,0,0,1,10.92-1.56c3.65-.3,7.29-.43,10.93-.43s7.28.13,10.92.42A78.84,78.84,0,0,1,43.7,33.05a77.39,77.39,0,0,1-10.93,1.58q-5.46.43-10.92.42c-3.64,0-7.28-.13-10.93-.43A78.92,78.92,0,0,1,0,33.05Z"/><path class="cls-1" d="M0,17.53H43.7"/><path class="cls-1" d="M0,17.53A78.92,78.92,0,0,1,10.92,16q5.48-.44,10.93-.43T32.77,16A77.39,77.39,0,0,1,43.7,17.53,78.84,78.84,0,0,1,32.77,19.1q-5.46.43-10.92.43c-3.64,0-7.28-.14-10.93-.44A80.43,80.43,0,0,1,0,17.53Z"/></g></g></svg>