<svg xmlns="http://www.w3.org/2000/svg" viewBox="0 0 98.66 98.66"><defs><style>.cls-1{fill:#d2d7cf;}.cls-2{fill:#b35360;}</style></defs><g id="Livello_2" data-name="Livello 2"><g id="Livello_1-2" data-name="Livello 1"><path class="cls-1" d="M.21.21,98.44,98.44"/><path class="cls-2" d="M.42,0A131,131,0,0,1,14.14,10.84q3.25,2.88,6.38,5.9c2.09,2,4.11,4.08,6,6.26,3.82,4.37,7.23,9.14,11.19,13.36A129.79,129.79,0,0,0,50.49,48.17c2.22,1.86,4.5,3.68,6.68,5.59s4.31,3.88,6.44,5.84c4.26,3.93,8.52,7.86,12.54,12s7.92,8.45,11.69,12.87,7.45,8.93,10.82,13.74l-.43.43c-4.81-3.37-9.31-7.07-13.74-10.82s-8.7-7.67-12.87-11.69-8.09-8.28-12-12.54c-2-2.13-4-4.24-5.84-6.44S50,52.71,48.17,50.49A129.79,129.79,0,0,0,36.36,37.73c-4.22-4-9-7.37-13.36-11.19-2.18-1.91-4.26-3.93-6.26-6s-4-4.21-5.9-6.38A131,131,0,0,1,0,.42Z"/><path class="cls-1" d="M.21,98.44Q49.34,49.33,98.44.21"/><path class="cls-2" d="M0,98.23A132.07,132.07,0,0,1,10.84,84.51q2.88-3.26,5.9-6.37c2-2.1,4.08-4.12,6.26-6,4.37-3.82,9.14-7.23,13.36-11.2A129.68,129.68,0,0,0,48.17,48.17c1.86-2.23,3.68-4.51,5.59-6.68S57.64,37.17,59.6,35c3.93-4.25,7.86-8.51,12-12.54s8.45-7.92,12.87-11.68S93.42,3.37,98.23,0l.43.42c-3.37,4.82-7.07,9.31-10.82,13.74S80.17,22.87,76.15,27s-8.28,8.08-12.54,12c-2.13,2-4.24,4-6.44,5.84s-4.46,3.73-6.68,5.6a129.69,129.69,0,0,0-12.76,11.8c-4,4.22-7.37,9-11.19,13.37-1.91,2.18-3.93,4.26-6,6.25s-4.21,4-6.38,5.91A131,131,0,0,1,.42,98.66Z"/></g></g></svg>